ply
format ascii 1.0
element vertex 168
property float x
property float y
property float z
property float nx
property float ny
property float nz
element face 332
property list uchar int vertex_indices
end_header
-0.26501349 0.030394625 -0.37162396 0 0 0 
-0.26708016 0.033827958 -0.37935729 0 0 0 
-0.12118016 -0.23633871 -0.38812396 0 0 0 
-0.092013489 -0.26137204 -0.39089063 0 0 0 
-0.15134682 -0.19960538 -0.40109063 0 0 0 
-0.16338016 -0.17687204 -0.39985729 0 0 0 
-0.13971349 -0.21137204 -0.35515729 0 0 0 
-0.058046822 -0.036638709 0.39480937 0 0 0 
-0.072646822 -0.021238709 0.40950937 0 0 0 
-0.15428016 0.0020279579 0.29417604 0 0 0 
-0.15808016 -0.0077387088 0.28057604 0 0 0 
-0.15258016 0.053294625 0.29224271 0 0 0 
-0.17691349 0.0072946245 0.24720937 0 0 0 
-0.058246822 0.051461291 0.41690937 0 0 0 
-0.065080155 0.049394625 0.41830937 0 0 0 
-0.14268016 0.069394625 0.29910937 0 0 0 
-0.14084682 0.073561291 0.29890937 0 0 0 
-0.087546822 0.14809462 0.27044271 0 0 0 
-0.19334682 0.25956129 -0.39685729 0 0 0 
-0.083080155 0.32286129 -0.39629063 0 0 0 
-0.10274682 0.31262796 -0.39595729 0 0 0 
-0.037980155 0.15686129 0.30134271 0 0 0 
-0.024880155 0.17006129 0.27284271 0 0 0 
-0.023546822 0.16692796 0.28350937 0 0 0 
0.12348651 0.12602796 0.21447604 0 0 0 
0.13068651 0.053927958 0.13520937 0 0 0 
-0.033780155 0.016527958 0.42030937 0 0 0 
-0.029813489 -0.0094720421 0.40797604 0 0 0 
-0.034546822 -0.018938709 0.40727604 0 0 0 
0.046253178 -0.23730538 -0.29272396 0 0 0 
0.038853178 -0.24237204 -0.29155729 0 0 0 
-0.21844682 -0.066238709 -0.40115729 0 0 0 
-0.26104682 0.020127958 -0.40412396 0 0 0 
-0.26041349 0.019294625 -0.36899063 0 0 0 
-0.26791349 0.040194625 -0.39005729 0 0 0 
-0.052213489 -0.24530538 -0.39949063 0 0 0 
-0.085613489 -0.25277204 -0.34379063 0 0 0 
-0.094280155 -0.25853871 -0.38559063 0 0 0 
-0.12484682 -0.23360538 -0.39749063 0 0 0 
-0.12934682 -0.22900538 -0.39815729 0 0 0 
-0.12728016 -0.22043871 -0.34835729 0 0 0 
-0.13564682 -0.21803871 -0.40069063 0 0 0 
-0.15774682 -0.18693871 -0.37379063 0 0 0 
-0.15324682 -0.19533871 -0.37155729 0 0 0 
-0.15898016 -0.18443871 -0.37362396 0 0 0 
-0.15141349 -0.19790538 -0.40125729 0 0 0 
-0.15031349 -0.19847204 -0.36509063 0 0 0 
-0.14658016 -0.20347204 -0.36195729 0 0 0 
-0.10531349 -0.13673871 0.033242707 0 0 0 
-0.092980155 -0.14260538 0.050842707 0 0 0 
-0.080946822 -0.14847204 0.055909374 0 0 0 
-0.070280155 -0.14787204 0.057842707 0 0 0 
-0.073380155 -0.14760538 0.059809374 0 0 0 
-0.077680155 -0.14757204 0.060942707 0 0 0 
-0.079280155 -0.14757204 0.060742707 0 0 0 
-0.050080155 -0.036772042 0.39010937 0 0 0 
-0.046013489 -0.023472042 0.41154271 0 0 0 
-0.065313489 -0.035372042 0.39050937 0 0 0 
-0.068613489 -0.030305375 0.40040937 0 0 0 
-0.072113489 -0.026605375 0.40264271 0 0 0 
-0.14448016 -0.023005375 0.29340937 0 0 0 
-0.14478016 -0.023138709 0.29260937 0 0 0 
-0.14624682 -0.032638709 0.26920937 0 0 0 
-0.13204682 -0.038172042 0.28077604 0 0 0 
-0.13954682 -0.030672042 0.28740937 0 0 0 
-0.096113489 0.0054279579 0.40507604 0 0 0 
-0.10081349 0.019127958 0.40177604 0 0 0 
-0.15604682 -0.0099720421 0.28354271 0 0 0 
-0.16174682 0.012827958 0.28247604 0 0 0 
-0.15714682 0.020727958 0.29500937 0 0 0 
-0.14818016 -0.0086387088 0.30007604 0 0 0 
-0.15121349 -0.020005375 0.28664271 0 0 0 
-0.16021349 -0.0043720421 0.27790937 0 0 0 
-0.17441349 0.0040612912 0.24964271 0 0 0 
-0.17754682 0.0090279579 0.24657604 0 0 0 
-0.19191349 0.057661291 0.20630937 0 0 0 
-0.19524682 0.047194625 0.21534271 0 0 0 
-0.19484682 0.041261291 0.21707604 0 0 0 
-0.19178016 0.033427958 0.22094271 0 0 0 
-0.099913489 0.032194625 0.40287604 0 0 0 
-0.098446822 0.026627958 0.40910937 0 0 0 
-0.093346822 0.039061291 0.40944271 0 0 0 
-0.091580155 0.040861291 0.41014271 0 0 0 
-0.089846822 0.015327958 0.41920937 0 0 0 
-0.089446822 0.031294625 0.41907604 0 0 0 
-0.090980155 -0.00073870879 0.41030937 0 0 0 
-0.092280155 -0.0016053755 0.40727604 0 0 0 
-0.089246822 -0.00083870879 0.41297604 0 0 0 
-0.089280155 -0.012205375 0.39927604 0 0 0 
-0.082346822 -0.0074387088 0.41427604 0 0 0 
-0.071946822 -0.018305375 0.41284271 0 0 0 
-0.077313489 -0.0091387088 0.41590937 0 0 0 
-0.047613489 -0.018272042 0.41607604 0 0 0 
-0.039880155 -0.010905375 0.41650937 0 0 0 
-0.041313489 0.044827958 0.41697604 0 0 0 
-0.078846822 0.044927958 0.41797604 0 0 0 
-0.10328016 0.12682796 0.28914271 0 0 0 
-0.13794682 0.081261291 0.29607604 0 0 0 
-0.14368016 0.071894625 0.29510937 0 0 0 
-0.18684682 0.070961291 0.19127604 0 0 0 
-0.19114682 0.061761291 0.19954271 0 0 0 
-0.14031349 0.088294625 0.28107604 0 0 0 
-0.13901349 0.085561291 0.28837604 0 0 0 
-0.093546822 0.12999462 0.29637604 0 0 0 
-0.10611349 0.12949462 0.27754271 0 0 0 
-0.099346822 0.13209462 0.28680937 0 0 0 
-0.10108016 0.13279462 0.28197604 0 0 0 
-0.099780155 0.13879462 0.26927604 0 0 0 
-0.089746822 0.14182796 0.28230937 0 0 0 
-0.088280155 0.14599462 0.27570937 0 0 0 
-0.061513489 0.16266129 0.26287604 0 0 0 
-0.061346822 0.16122796 0.26870937 0 0 0 
-0.073780155 0.15216129 0.28397604 0 0 0 
-0.075713489 0.15372796 0.27407604 0 0 0 
-0.073180155 0.14299462 0.29917604 0 0 0 
-0.044446822 0.15376129 0.30187604 0 0 0 
-0.048113489 0.15306129 0.30084271 0 0 0 
-0.044546822 0.16119462 0.28990937 0 0 0 
-0.038880155 0.16032796 0.29527604 0 0 0 
-0.036413489 0.15936129 0.29850937 0 0 0 
-0.041013489 0.16856129 0.26784271 0 0 0 
-0.23468016 0.23359462 -0.39492396 0 0 0 
-0.24814682 0.21999462 -0.39345729 0 0 0 
-0.16354682 0.27752796 -0.39575729 0 0 0 
-0.20981349 0.24989462 -0.39689063 0 0 0 
-0.22701349 0.23979462 -0.39532396 0 0 0 
-0.26274682 0.18162796 -0.39662396 0 0 0 
-0.27451349 0.15506129 -0.39692396 0 0 0 
-0.26811349 0.15666129 -0.39755729 0 0 0 
-0.25861349 0.20819462 -0.39285729 0 0 0 
-0.26374682 0.19022796 -0.39239063 0 0 0 
-0.28094682 0.12582796 -0.39749063 0 0 0 
-0.26684682 0.086927958 -0.40142396 0 0 0 
0.083453178 0.32866129 -0.39929063 0 0 0 
0.22768651 0.11572796 -0.39579063 0 0 0 
0.18078651 0.19232796 -0.39699063 0 0 0 
0.16031984 0.22736129 -0.39652396 0 0 0 
0.10195318 0.31506129 -0.39845729 0 0 0 
-0.032580155 0.17019462 0.27187604 0 0 0 
-0.028546822 0.15716129 0.30400937 0 0 0 
-0.025146822 0.16376129 0.29310937 0 0 0 
-0.021180155 0.14982796 0.30950937 0 0 0 
-0.019613489 0.16772796 0.27964271 0 0 0 
-0.019313489 0.17002796 0.27187604 0 0 0 
-0.0099134888 0.15726129 0.29444271 0 0 0 
-0.0072134888 0.16166129 0.28137604 0 0 0 
-0.011480155 0.15476129 0.29944271 0 0 0 
-0.010413489 0.14546129 0.30697604 0 0 0 
-0.0076134888 0.16266129 0.27890937 0 0 0 
-0.011380155 0.16789462 0.26774271 0 0 0 
-0.010580155 0.17002796 0.25980937 0 0 0 
0.12645318 0.11669462 0.20314271 0 0 0 
0.12988651 0.089961291 0.17567604 0 0 0 
-0.034480155 0.033961291 0.41764271 0 0 0 
-0.031846822 0.0096946245 0.41764271 0 0 0 
-0.031113489 0.0090946245 0.41700937 0 0 0 
0.13091984 0.067694625 0.15097604 0 0 0 
-0.024713489 0.00099462455 0.40487604 0 0 0 
-0.028813489 -0.022572042 0.39437604 0 0 0 
0.10885318 -0.16237204 -0.39959063 0 0 0 
-0.015246822 -0.22780538 -0.40255729 0 0 0 
0.038186511 -0.20027204 -0.39965729 0 0 0 
0.27425318 0.034427958 -0.39552396 0 0 0 
0.30561984 -0.025305375 -0.39512396 0 0 0 
0.30705318 -0.030405375 -0.39512396 0 0 0 
0.30851984 -0.038338709 -0.39835729 0 0 0 
0.24915318 -0.063105375 -0.31149063 0 0 0 
0.22821984 -0.074172042 -0.40722396 0 0 0 
3 42 5 4 
3 77 74 69 
3 74 68 69 
3 65 9 70 
3 109 106 105 
3 139 21 14 
3 113 19 20 
3 108 105 114 
3 155 154 93 
3 85 71 86 
3 71 85 70 
3 58 8 59 
3 37 2 3 
3 12 33 44 
3 0 33 78 
3 75 100 129 
3 33 31 5 
3 3 30 36 
3 38 39 41 
3 63 58 64 
3 4 43 42 
3 9 66 80 
3 80 69 9 
3 47 12 46 
3 4 32 45 
3 38 3 2 
3 79 80 81 
3 28 158 27 
3 49 40 2 
3 153 94 26 
3 82 84 95 
3 76 77 69 
3 70 9 67 
3 97 76 98 
3 10 71 67 
3 37 36 49 
3 49 48 40 
3 83 65 87 
3 9 69 68 
3 81 15 79 
3 71 62 64 
3 85 65 70 
3 47 62 73 
3 6 62 47 
3 58 56 90 
3 7 56 58 
3 76 69 80 
3 8 88 59 
3 91 89 90 
3 83 80 65 
3 65 85 87 
3 131 77 76 
3 96 103 105 
3 98 76 15 
3 81 16 15 
3 34 1 131 
3 74 77 78 
3 78 12 74 
3 18 20 19 
3 133 19 138 
3 76 75 129 
3 130 127 76 
3 131 32 34 
3 123 17 20 
3 32 18 133 
3 18 123 20 
3 111 120 110 
3 24 134 136 
3 134 135 136 
3 167 137 165 
3 107 106 109 
3 112 114 116 
3 139 141 146 
3 155 26 154 
3 119 118 116 
3 13 94 141 
3 119 116 21 
3 7 57 54 
3 23 138 140 
3 83 91 92 
3 92 26 83 
3 94 14 26 
3 26 155 24 
3 7 58 57 
3 27 155 93 
3 24 27 151 
3 152 151 27 
3 94 13 14 
3 26 24 153 
3 158 152 27 
3 55 56 7 
3 55 7 30 
3 166 29 165 
3 39 2 6 
3 158 156 152 
3 45 32 160 
3 134 24 162 
3 163 164 165 
3 32 4 5 
3 5 31 32 
3 46 12 43 
3 43 4 39 
3 43 12 42 
3 33 0 1 
3 33 32 31 
3 33 1 32 
3 131 76 127 
3 78 77 0 
3 32 1 34 
3 1 77 131 
3 39 4 41 
3 33 42 44 
3 6 2 40 
3 35 3 38 
3 35 30 3 
3 38 2 39 
3 3 36 37 
3 41 4 45 
3 7 53 52 
3 42 12 44 
3 35 38 41 
3 42 33 5 
3 64 58 59 
3 47 46 43 
3 47 43 39 
3 47 39 6 
3 2 37 49 
3 50 49 36 
3 6 40 48 
3 50 58 63 
3 58 50 54 
3 7 54 53 
3 7 52 51 
3 30 52 53 
3 52 30 51 
3 30 53 36 
3 7 51 30 
3 49 50 63 
3 36 53 54 
3 54 50 36 
3 60 59 88 
3 83 89 91 
3 89 83 87 
3 54 57 58 
3 73 12 47 
3 8 90 89 
3 56 28 93 
3 93 92 56 
3 64 62 63 
3 60 61 64 
3 72 12 10 
3 26 92 93 
3 10 67 9 
3 59 60 64 
3 6 48 62 
3 48 49 62 
3 63 62 49 
3 71 12 73 
3 87 85 86 
3 10 9 72 
3 66 9 65 
3 8 58 90 
3 80 66 65 
3 84 81 80 
3 61 60 71 
3 9 68 74 
3 74 12 9 
3 12 71 10 
3 72 9 12 
3 71 64 61 
3 70 67 71 
3 77 1 0 
3 33 12 78 
3 62 71 73 
3 75 76 101 
3 80 83 84 
3 76 11 15 
3 81 82 97 
3 79 11 80 
3 96 101 102 
3 79 15 11 
3 93 28 27 
3 84 26 14 
3 11 76 80 
3 88 71 60 
3 82 81 84 
3 83 26 84 
3 71 88 86 
3 87 86 88 
3 87 88 89 
3 89 88 8 
3 153 24 94 
3 90 56 92 
3 92 91 90 
3 158 30 29 
3 146 94 147 
3 94 146 141 
3 155 27 157 
3 142 23 140 
3 95 84 14 
3 95 14 21 
3 102 101 76 
3 98 15 16 
3 104 96 106 
3 115 95 21 
3 101 96 104 
3 104 106 107 
3 76 97 102 
3 139 13 141 
3 142 144 145 
3 21 139 119 
3 99 101 104 
3 16 97 98 
3 16 81 97 
3 82 96 97 
3 102 97 96 
3 96 105 106 
3 32 131 132 
3 99 100 101 
3 101 100 75 
3 143 22 23 
3 82 95 103 
3 96 82 103 
3 108 114 112 
3 112 19 113 
3 19 112 110 
3 112 111 110 
3 107 109 121 
3 20 17 113 
3 138 118 140 
3 118 138 117 
3 111 112 117 
3 117 116 118 
3 112 17 109 
3 105 108 109 
3 120 19 110 
3 114 103 95 
3 22 133 138 
3 24 144 146 
3 114 105 103 
3 142 140 144 
3 108 112 109 
3 17 112 113 
3 114 95 116 
3 119 139 140 
3 95 115 116 
3 112 116 117 
3 13 139 14 
3 142 145 148 
3 116 115 21 
3 24 137 133 
3 120 111 117 
3 133 143 150 
3 123 18 124 
3 125 109 17 
3 125 121 109 
3 107 121 122 
3 104 107 122 
3 100 99 129 
3 124 18 32 
3 126 121 124 
3 125 124 121 
3 123 124 125 
3 17 123 125 
3 76 129 130 
3 128 127 126 
3 130 129 127 
3 129 126 127 
3 104 122 129 
3 129 99 104 
3 122 121 129 
3 129 121 126 
3 132 124 32 
3 126 124 132 
3 132 128 126 
3 132 127 128 
3 131 127 132 
3 136 135 137 
3 140 118 119 
3 18 19 133 
3 146 144 140 
3 24 136 137 
3 138 19 120 
3 23 22 138 
3 138 120 117 
3 23 142 143 
3 147 94 24 
3 133 22 143 
3 144 24 145 
3 24 146 147 
3 143 149 150 
3 140 139 146 
3 145 24 148 
3 142 148 24 
3 149 143 142 
3 149 142 24 
3 150 149 24 
3 24 133 150 
3 165 135 134 
3 25 156 158 
3 26 93 154 
3 24 155 157 
3 27 24 157 
3 28 56 158 
3 56 55 158 
3 30 158 55 
3 41 45 160 
3 160 35 41 
3 30 160 161 
3 159 30 161 
3 161 160 159 
3 167 165 159 
3 160 30 35 
3 165 137 135 
3 162 24 163 
3 162 163 165 
3 164 163 24 
3 133 137 167 
3 134 162 165 
3 30 159 165 
3 29 30 165 
3 165 25 158 
3 156 25 165 
3 152 156 165 
3 151 152 165 
3 165 164 24 
3 24 151 165 
3 166 158 29 
3 166 165 158 
3 160 167 159 
3 167 160 32 
3 167 32 133 
