<?xml version="1.0" encoding="utf-8" standalone="no"?>
<!DOCTYPE svg PUBLIC "-//W3C//DTD SVG 1.1//EN"
  "http://www.w3.org/Graphics/SVG/1.1/DTD/svg11.dtd">
<!-- Created with matplotlib (https://matplotlib.org/) -->
<svg height="144pt" version="1.1" viewBox="0 0 288 144" width="288pt" xmlns="http://www.w3.org/2000/svg" xmlns:xlink="http://www.w3.org/1999/xlink">
 <defs>
  <style type="text/css">
*{stroke-linecap:butt;stroke-linejoin:round;}
  </style>
 </defs>
 <g id="figure_1">
  <g id="patch_1">
   <path d="M 0 144 
L 288 144 
L 288 0 
L 0 0 
z
" style="fill:#ffffff;"/>
  </g>
  <g id="axes_1">
   <g id="PolyCollection_1">
    <path clip-path="url(#p243af2831d)" d="M 284 69.893647 
L 168.266667 95.548235 
L 395.6 196.101176 
z
" style="fill:#52be80;stroke:#000000;stroke-width:2;"/>
    <path clip-path="url(#p243af2831d)" d="M 395.6 196.101176 
L 85.6 103.701176 
L -5.333333 136.856471 
z
" style="fill:#52be80;stroke:#000000;stroke-width:2;"/>
    <path clip-path="url(#p243af2831d)" d="M 168.266667 95.548235 
L 85.6 103.701176 
L 395.6 196.101176 
z
" style="fill:#52be80;stroke:#000000;stroke-width:2;"/>
    <path clip-path="url(#p243af2831d)" d="M 226.133333 66.849882 
L 284 69.893647 
L 250.933333 62.936471 
z
" style="fill:#52be80;stroke:#000000;stroke-width:2;"/>
    <path clip-path="url(#p243af2831d)" d="M 284 69.893647 
L 226.133333 66.849882 
L 168.266667 95.548235 
z
" style="fill:#52be80;stroke:#000000;stroke-width:2;"/>
    <path clip-path="url(#p243af2831d)" d="M 44.266667 106.418824 
L 23.6 106.418824 
L -5.333333 136.856471 
z
" style="fill:#52be80;stroke:#000000;stroke-width:2;"/>
    <path clip-path="url(#p243af2831d)" d="M 85.6 103.701176 
L 44.266667 106.418824 
L -5.333333 136.856471 
z
" style="fill:#52be80;stroke:#000000;stroke-width:2;"/>
    <path clip-path="url(#p243af2831d)" d="M 44.266667 106.418824 
L 149.666667 66.197647 
L 23.6 106.418824 
z
" style="fill:#d4efdf;stroke:#000000;stroke-width:2;"/>
    <path clip-path="url(#p243af2831d)" d="M 149.666667 66.197647 
L 226.133333 66.849882 
L 250.933333 62.936471 
z
" style="fill:#d4efdf;stroke:#000000;stroke-width:2;"/>
    <path clip-path="url(#p243af2831d)" d="M 226.133333 66.849882 
L 149.666667 66.197647 
L 168.266667 95.548235 
z
" style="fill:#d4efdf;stroke:#000000;stroke-width:2;"/>
    <path clip-path="url(#p243af2831d)" d="M 106.266667 95.548235 
L 44.266667 106.418824 
L 85.6 103.701176 
z
" style="fill:#d4efdf;stroke:#000000;stroke-width:2;"/>
    <path clip-path="url(#p243af2831d)" d="M 106.266667 95.548235 
L 149.666667 66.197647 
L 44.266667 106.418824 
z
" style="fill:#d4efdf;stroke:#000000;stroke-width:2;"/>
    <path clip-path="url(#p243af2831d)" d="M 106.266667 95.548235 
L 85.6 103.701176 
L 168.266667 95.548235 
z
" style="fill:#52be80;stroke:#000000;stroke-width:2;"/>
    <path clip-path="url(#p243af2831d)" d="M 149.666667 66.197647 
L 106.266667 95.548235 
L 168.266667 95.548235 
z
" style="fill:#52be80;stroke:#000000;stroke-width:2;"/>
   </g>
   <g id="line2d_1">
    <path clip-path="url(#p243af2831d)" d="M 23.6 106.418824 
L -1 132.297837 
M 44.266667 106.418824 
L -1 134.197268 
M 44.266667 106.418824 
L 23.6 106.418824 
M 85.6 103.701176 
L -1 135.27649 
M 85.6 103.701176 
L 44.266667 106.418824 
M 106.266667 95.548235 
L 44.266667 106.418824 
M 106.266667 95.548235 
L 85.6 103.701176 
M 149.666667 66.197647 
L 23.6 106.418824 
M 149.666667 66.197647 
L 44.266667 106.418824 
M 149.666667 66.197647 
L 106.266667 95.548235 
M 168.266667 95.548235 
L 85.6 103.701176 
M 168.266667 95.548235 
L 106.266667 95.548235 
M 168.266667 95.548235 
L 149.666667 66.197647 
M 226.133333 66.849882 
L 149.666667 66.197647 
M 226.133333 66.849882 
L 168.266667 95.548235 
M 250.933333 62.936471 
L 149.666667 66.197647 
M 250.933333 62.936471 
L 226.133333 66.849882 
M 284 69.893647 
L 168.266667 95.548235 
M 284 69.893647 
L 226.133333 66.849882 
M 284 69.893647 
L 250.933333 62.936471 
M 49.777285 145 
L -1 137.496794 
M 224.156659 145 
L 85.6 103.701176 
M 280.068812 145 
L 168.266667 95.548235 
M 289 75.548106 
L 284 69.893647 
" style="fill:none;stroke:#bfbfbf;stroke-linecap:square;stroke-width:2;"/>
   </g>
   <g id="line2d_2"/>
   <g id="PathCollection_1">
    <defs>
     <path d="M 0 6.708204 
C 1.779036 6.708204 3.485448 6.001385 4.743416 4.743416 
C 6.001385 3.485448 6.708204 1.779036 6.708204 0 
C 6.708204 -1.779036 6.001385 -3.485448 4.743416 -4.743416 
C 3.485448 -6.001385 1.779036 -6.708204 0 -6.708204 
C -1.779036 -6.708204 -3.485448 -6.001385 -4.743416 -4.743416 
C -6.001385 -3.485448 -6.708204 -1.779036 -6.708204 0 
C -6.708204 1.779036 -6.001385 3.485448 -4.743416 4.743416 
C -3.485448 6.001385 -1.779036 6.708204 0 6.708204 
z
" id="mbb33c2e3bc" style="stroke:#ff0000;"/>
    </defs>
    <g clip-path="url(#p243af2831d)">
     <use style="fill:#ff0000;stroke:#ff0000;" x="-1" xlink:href="#mbb33c2e3bc" y="132.297837"/>
     <use style="fill:#ff0000;stroke:#ff0000;" x="23.6" xlink:href="#mbb33c2e3bc" y="106.418824"/>
     <use style="fill:#ff0000;stroke:#ff0000;" x="44.266667" xlink:href="#mbb33c2e3bc" y="106.418824"/>
     <use style="fill:#ff0000;stroke:#ff0000;" x="85.6" xlink:href="#mbb33c2e3bc" y="103.701176"/>
     <use style="fill:#ff0000;stroke:#ff0000;" x="106.266667" xlink:href="#mbb33c2e3bc" y="95.548235"/>
     <use style="fill:#ff0000;stroke:#ff0000;" x="149.666667" xlink:href="#mbb33c2e3bc" y="66.197647"/>
     <use style="fill:#ff0000;stroke:#ff0000;" x="168.266667" xlink:href="#mbb33c2e3bc" y="95.548235"/>
     <use style="fill:#ff0000;stroke:#ff0000;" x="226.133333" xlink:href="#mbb33c2e3bc" y="66.849882"/>
     <use style="fill:#ff0000;stroke:#ff0000;" x="250.933333" xlink:href="#mbb33c2e3bc" y="62.936471"/>
     <use style="fill:#ff0000;stroke:#ff0000;" x="284" xlink:href="#mbb33c2e3bc" y="69.893647"/>
     <use style="fill:#ff0000;stroke:#ff0000;" x="395.6" xlink:href="#mbb33c2e3bc" y="196.101176"/>
    </g>
   </g>
  </g>
 </g>
 <defs>
  <clipPath id="p243af2831d">
   <rect height="110.88" width="223.2" x="36" y="17.28"/>
  </clipPath>
 </defs>
</svg>
